<svg fill="green" version="1.1" id="Layer_1" xmlns="http://www.w3.org/2000/svg" xmlns:xlink="http://www.w3.org/1999/xlink" viewBox="0 0 292.99 292.99" xml:space="preserve" width="32px" height="32px" transform="matrix(1, 0, 0, 1, 0, 0)">
    <g id="SVGRepo_bgCarrier" stroke-width="0"></g>
    <g id="SVGRepo_tracerCarrier" stroke-linecap="round" stroke-linejoin="round" stroke="#00000" stroke-width="1"></g>
    <g id="SVGRepo_iconCarrier">
        <g>
            <g>
                <g>
                    <path d="M146.918,0h-0.844C81.687,0,29.309,52.378,29.309,116.766c0,28.631,10.477,56.18,29.494,77.569l87.694,98.658 l87.694-98.658c19.017-21.389,29.494-48.938,29.494-77.569C263.684,52.378,211.304,0,146.918,0z M227.182,188.109l-80.686,90.773 l-80.686-90.773c-17.494-19.673-27.127-45.014-27.127-71.344c0-59.217,48.173-107.391,107.391-107.391h0.848 c59.213,0,107.386,48.173,107.386,107.391C254.309,143.095,244.676,168.436,227.182,188.109z" stroke="black"></path>
                    <path d="M216.809,89.063h-9.867l-3.3-29.681c-0.792-7.13-6.802-12.506-13.973-12.506h-10.359v-18.75h-65.625v18.75h-10.359 c-7.172,0-13.186,5.377-13.973,12.511l-3.3,29.677h-9.867c-10.341,0-18.75,8.409-18.75,18.75v46.875 c0,5.17,4.205,9.375,9.375,9.375h4.688v9.375c0,7.753,6.309,14.063,14.063,14.063h9.375c7.753,0,14.063-6.309,14.063-14.063 v-9.375h75v9.375c0,7.753,6.309,14.063,14.063,14.063h9.375c7.753,0,14.063-6.309,14.063-14.063v-9.375h4.688 c5.17,0,9.375-4.205,9.375-9.375v-46.875C235.559,97.472,227.148,89.063,216.809,89.063z M123.059,37.5h46.875v9.375h-46.875 V37.5z M98.664,60.422c0.267-2.377,2.269-4.172,4.659-4.172h10.359h65.625h10.359c2.391,0,4.397,1.795,4.659,4.172l3.183,28.641 H95.481L98.664,60.422z M94.932,178.126h-9.375c-2.583,0-4.688-2.1-4.688-4.688v-9.375h18.75v9.375h0.001 C99.621,176.025,97.515,178.126,94.932,178.126z M207.432,178.126h-9.375c-2.583,0-4.688-2.1-4.688-4.688v-9.375h18.75v9.375 h0.001C212.121,176.025,210.015,178.126,207.432,178.126z M226.182,154.688h-4.687h-37.5h-75h-37.5h-4.688v-9.375h159.375 V154.688z M226.184,135.938H66.809v-28.125c0-5.171,4.204-9.375,9.375-9.375h14.063h4.195h104.109h4.195h14.063 c5.17,0,9.375,4.205,9.375,9.375V135.938z" stroke="black"></path>
                    <path d="M85.559,103.124c-7.754,0-14.063,6.309-14.063,14.063c0,7.754,6.309,14.063,14.063,14.063 c7.753,0,14.063-6.309,14.063-14.063C99.621,109.433,93.312,103.124,85.559,103.124z M85.559,121.876 c-2.583,0-4.688-2.105-4.688-4.688s2.105-4.688,4.688-4.688s4.688,2.105,4.688,4.688S88.142,121.876,85.559,121.876z" stroke="black"></path>
                    <path d="M207.434,103.124c-7.753,0-14.063,6.309-14.063,14.063c0,7.754,6.309,14.063,14.063,14.063 c7.753,0,14.063-6.309,14.063-14.063C221.497,109.433,215.187,103.124,207.434,103.124z M207.434,121.876 c-2.583,0-4.688-2.105-4.688-4.688s2.105-4.688,4.688-4.688s4.688,2.105,4.688,4.688S210.017,121.876,207.434,121.876z" stroke="black"></path>
                    <rect x="113.684" y="117.188" width="65.625" height="9.375" stroke="black"></rect>
                    <rect x="141.809" y="239.063" width="9.375" height="9.375" stroke="black"></rect>
                    <rect x="141.809" y="220.313" width="9.375" height="9.375" stroke="black"></rect>
                    <rect x="141.809" y="201.563" width="9.375" height="9.375" stroke="black"></rect>
                </g>
            </g>
        </g>
    </g>
</svg>
